. 
 
http://www.torrenting.com          :     Once & For all ;)


               www . Torrenting . Com 

(((((((((((((= Enjoy No RAR releases =))))))))))))))))))))


...................................NFO:....................................

.[img]http://img256.imageshack.us/img256/1173/jackandjillthekuthi.jpg[/img]
[code]
Imdb:
http://www.imdb.com/title/tt0810913/

Plot: Family guy Jack Sadelstein prepares for the annual event he dreads: the Thanksgiving visit of his twin sister, the needy and passive-aggressive Jill, who then refuses to leave.

Source:
FYA

Notes:
Encoded video and added few filters so enjoy :)
Encoded by LoGiCurL

Greetz

Goes out to the people next door you know what i mean haha :D and to to the punjabi squad BRUAHHH! :P

Format                                   : AVI
Format/Info                              : Audio Video Interleave
File size                                : 1.52 GiB
Duration                                 : 1h 28mn
Overall bit rate                         : 2 468 Kbps

Video
ID                                       : 0
Format                                   : MPEG-4 Visual
Format profile                           : Advanced Simple@L5
Format settings, BVOP                    : 2
Format settings, QPel                    : No
Format settings, GMC                     : No warppoints
Format settings, Matrix                  : Default (H.263)
Codec ID                                 : XVID
Codec ID/Hint                            : XviD
Duration                                 : 1h 28mn
Bit rate                                 : 2 200 Kbps
Width                                    : 720 pixels
Height                                   : 320 pixels
Display aspect ratio                     : 2.25:1
Frame rate                               : 24.000 fps
Color space                              : YUV
Chroma subsampling                       : 4:2:0
Bit depth                                : 8 bits
Scan type                                : Progressive
Compression mode                         : Lossy
Bits/(Pixel*Frame)                       : 0.398
Stream size                              : 1.36 GiB (89%)
Writing library                          : XviD 63

Audio
ID                                       : 1
Format                                   : MPEG Audio
Format version                           : Version 1
Format profile                           : Layer 3
Mode                                     : Joint stereo
Codec ID                                 : 55
Codec ID/Hint                            : MP3
Duration                                 : 1h 28mn
Bit rate mode                            : Constant
Bit rate                                 : 256 Kbps
Channel(s)                               : 2 channels
Sampling rate                            : 44.1 KHz
Compression mode                         : Lossy
Stream size                              : 162 MiB (10%)
Alignment                                : Split accross 

[/code]
Screens:

[img]http://img810.imageshack.us/img810/853/vlcsnap2011112821h11m55.png[/img]
[img]http://img163.imageshack.us/img163/9400/vlcsnap2011112821h12m06.png[/img]
[img]http://img577.imageshack.us/img577/1049/vlcsnap2011112821h12m12.png[/img]
[img]http://img687.imageshack.us/img687/7951/vlcsnap2011112821h12m16.png[/img]
[img]http://img233.imageshack.us/img233/9200/vlcsnap2011112821h12m21.png[/img]
[img]http://img525.imageshack.us/img525/681/vlcsnap2011112821h12m24.png[/img]
[img]http://img408.imageshack.us/img408/3228/vlcsnap2011112821h14m24.png[/img]